<svg xmlns="http://www.w3.org/2000/svg" fill="none" viewBox="0 0 460 460">
  <path fill="#11181C" d="M423.46 439.843c-2.482 0-4.389-.551-5.721-1.654-1.272-1.102-1.938-2.204-1.998-3.306l-.091-1.561v-28.84c0-4.837-1.241-7.929-3.723-9.276-1.272-.613-2.846-.919-4.723-.919-3.875 0-7.356 1.561-10.444 4.684-3.087 3.062-4.631 5.817-4.631 8.266v32.606h-6.357V393.92h6.357v10.47c1.029-2.633 2.936-5.082 5.721-7.348 2.785-2.326 5.843-3.49 9.173-3.49 3.329 0 6.024.337 8.082 1.011 2.119.612 3.663 1.5 4.632 2.663 1.513 1.898 2.27 4.348 2.27 7.348v28.748c0 1.775.333 3.153.999 4.133.727.918 1.453 1.408 2.18 1.469l.999.184H429v.735h-5.54ZM358.251 440.21c-6.357 0-11.534-1.837-15.53-5.511-3.996-3.674-5.994-9.337-5.994-16.991s2.059-13.593 6.176-17.818c4.177-4.225 9.445-6.338 15.802-6.338 6.417 0 11.624 1.837 15.62 5.511 3.996 3.674 5.994 9.338 5.994 16.992 0 7.653-2.089 13.593-6.266 17.818-4.117 4.225-9.385 6.337-15.802 6.337Zm.635-45.923c-4.601 0-8.415 2.082-11.442 6.246-3.028 4.102-4.541 9.858-4.541 17.267 0 7.347 1.392 12.797 4.177 16.348 2.785 3.552 6.479 5.327 11.08 5.327s8.416-2.051 11.443-6.153c3.027-4.164 4.541-9.92 4.541-17.267 0-7.409-1.393-12.889-4.178-16.441-2.785-3.551-6.478-5.327-11.08-5.327ZM329.354 394.471l.545-.551c.242.122.544.49.908 1.102.423.612.666 1.163.726 1.653.121.49.182.949.182 1.378 0 1.653-.363 3.337-1.09 5.051l-17.437 36.739h-.908l-16.892-45.923h6.358l13.894 38.024 14.077-28.84c.726-1.286 1.09-2.816 1.09-4.592 0-1.776-.485-3.123-1.453-4.041ZM257.585 417.432c0 7.593 1.302 13.165 3.905 16.716 2.664 3.552 6.146 5.327 10.444 5.327 6.055 0 11.443-.918 16.166-2.755l.272.643c-4.844 1.898-10.323 2.847-16.438 2.847-6.054 0-10.988-1.837-14.803-5.511-3.814-3.674-5.721-9.337-5.721-16.991s1.998-13.593 5.994-17.818c3.996-4.225 9.081-6.338 15.257-6.338 4.964 0 9.142 1.5 12.532 4.501 3.391 3 5.086 7.439 5.086 13.317v.919h-32.421a47 47 0 0 0-.273 5.143Zm26.519-5.878c-.061-5.878-1.181-10.225-3.361-13.042-2.179-2.817-4.994-4.225-8.445-4.225-3.451 0-6.539 1.531-9.264 4.592-2.664 3.062-4.359 7.287-5.085 12.675h26.155ZM205.793 375.642a170.76 170.76 0 0 1 7.81-.183c2.603 0 5.328.275 8.173.826 2.906.551 5.752 1.592 8.537 3.123 2.846 1.47 5.237 3.398 7.174 5.786 1.998 2.327 3.603 5.419 4.814 9.277 1.211 3.857 1.816 8.541 1.816 14.052 0 5.511-.908 10.471-2.724 14.879-1.756 4.348-4.178 7.685-7.266 10.012-5.994 4.531-13.229 6.796-21.705 6.796-2.966 0-6.084-.122-9.354-.367h-4.541v-64.201h7.266Zm.272 63.466c1.272.122 2.876.184 4.813.184 1.938 0 3.391-.031 4.36-.092.968-.061 2.3-.306 3.995-.735a23.19 23.19 0 0 0 4.723-1.929c1.453-.796 2.967-1.959 4.541-3.49 1.634-1.592 3.027-3.459 4.177-5.602 2.604-5.021 3.905-11.573 3.905-19.656 0-5.755-.696-10.715-2.088-14.879-1.393-4.225-2.997-7.347-4.814-9.368-1.756-2.021-3.905-3.613-6.448-4.776-2.543-1.225-4.571-1.929-6.084-2.112-1.514-.184-3.27-.276-5.268-.276-1.998 0-3.935.092-5.812.276v62.455ZM129.521 417.432c0 7.593 1.301 13.165 3.905 16.716 2.664 3.552 6.145 5.327 10.444 5.327 6.054 0 11.442-.918 16.165-2.755l.272.643c-4.843 1.898-10.323 2.847-16.437 2.847-6.055 0-10.989-1.837-14.803-5.511-3.815-3.674-5.722-9.337-5.722-16.991s1.998-13.593 5.994-17.818c3.996-4.225 9.082-6.338 15.257-6.338 4.965 0 9.142 1.5 12.533 4.501 3.39 3 5.085 7.439 5.085 13.317v.919h-32.421a47.005 47.005 0 0 0-.272 5.143Zm26.518-5.878c-.061-5.878-1.181-10.225-3.36-13.042-2.18-2.817-4.995-4.225-8.446-4.225-3.451 0-6.539 1.531-9.263 4.592-2.664 3.062-4.36 7.287-5.086 12.675h26.155ZM112.798 439.843c-2.482 0-4.389-.551-5.721-1.653-1.272-1.103-1.938-2.205-1.998-3.307l-.091-1.561v-28.84c0-4.837-1.271-7.929-3.814-9.276-1.211-.613-2.755-.919-4.632-.919-3.754 0-7.144 1.561-10.171 4.684-2.967 3.062-4.45 5.817-4.45 8.266v32.606h-6.357V371.05h6.357v33.34c.968-2.633 2.815-5.082 5.54-7.348 2.724-2.326 5.782-3.49 9.172-3.49 5.873 0 9.778 1.041 11.715 3.123 1.998 2.021 2.997 4.654 2.997 7.899v28.748c0 1.775.333 3.153.999 4.133.727.918 1.423 1.408 2.089 1.469l1.09.184h2.815v.735h-5.54ZM54.249 439.843H46.71v-63.374H31v-.919h39.05v.919H54.25v63.374Z"/>
  <path fill="#11181C" fill-rule="evenodd" d="M37 19h-4v334.049h91.213v-1h.041v-229.78l68.436-36.06v266.84h77.81v-8h-69.81V87.966l134.076 108.597v155.486h.041v1H427V19H37Zm305.766 326.049H419V27H41v318.049h75.254V117.442l2.135-1.125 76.437-40.277 2.333-1.23 2.049 1.66 142.076 115.077 1.482 1.2v152.302Z" clip-rule="evenodd"/>
</svg>
