<svg xmlns="http://www.w3.org/2000/svg" fill="none" viewBox="0 0 500 500">
  <path fill="#11181C" d="M439.572 458.46c-2.433 0-4.302-.54-5.607-1.62-1.246-1.08-1.898-2.16-1.958-3.24l-.089-1.53v-28.26c0-4.74-1.216-7.77-3.648-9.09-1.246-.6-2.789-.9-4.628-.9-3.797 0-7.208 1.53-10.234 4.59-3.025 3-4.538 5.7-4.538 8.1v31.95h-6.23v-45h6.23v10.26c1.008-2.58 2.877-4.98 5.606-7.2 2.729-2.28 5.725-3.42 8.988-3.42s5.903.33 7.92.99c2.077.6 3.59 1.47 4.539 2.61 1.483 1.86 2.225 4.26 2.225 7.2v28.17c0 1.74.326 3.09.979 4.05.712.9 1.423 1.38 2.135 1.44l.979.18H445v.72h-5.428ZM375.673 458.82c-6.23 0-11.302-1.8-15.218-5.4-3.915-3.6-5.873-9.15-5.873-16.65 0-7.5 2.017-13.32 6.051-17.46 4.094-4.14 9.255-6.21 15.485-6.21 6.288 0 11.391 1.8 15.306 5.4 3.916 3.6 5.874 9.15 5.874 16.65 0 7.5-2.047 13.32-6.141 17.46-4.034 4.14-9.196 6.21-15.484 6.21Zm.623-45c-4.509 0-8.247 2.04-11.213 6.12-2.966 4.02-4.45 9.66-4.45 16.92 0 7.2 1.365 12.54 4.094 16.02 2.729 3.48 6.348 5.22 10.857 5.22 4.509 0 8.246-2.01 11.213-6.03 2.966-4.08 4.449-9.72 4.449-16.92 0-7.26-1.364-12.63-4.093-16.11-2.729-3.48-6.348-5.22-10.857-5.22ZM347.356 414l.534-.54c.238.12.534.48.89 1.08.416.6.653 1.14.712 1.62.119.48.178.93.178 1.35 0 1.62-.356 3.27-1.068 4.95l-17.086 36h-.89l-16.552-45h6.229l13.616 37.26 13.793-28.26c.712-1.26 1.068-2.76 1.068-4.5 0-1.74-.474-3.06-1.424-3.96ZM277.031 436.5c0 7.44 1.275 12.9 3.827 16.38 2.61 3.48 6.021 5.22 10.233 5.22 5.933 0 11.213-.9 15.841-2.7l.267.63c-4.746 1.86-10.116 2.79-16.108 2.79-5.932 0-10.767-1.8-14.505-5.4-3.738-3.6-5.606-9.15-5.606-16.65 0-7.5 1.957-13.32 5.873-17.46 3.916-4.14 8.899-6.21 14.95-6.21 4.865 0 8.959 1.47 12.281 4.41 3.322 2.94 4.984 7.29 4.984 13.05v.9h-31.77c-.178 1.62-.267 3.3-.267 5.04Zm25.985-5.76c-.059-5.76-1.157-10.02-3.292-12.78-2.136-2.76-4.895-4.14-8.277-4.14-3.381 0-6.407 1.5-9.077 4.5-2.61 3-4.271 7.14-4.983 12.42h25.629ZM226.279 395.55c2.611-.12 5.162-.18 7.653-.18 2.551 0 5.221.27 8.01.81 2.847.54 5.636 1.56 8.365 3.06 2.788 1.44 5.131 3.33 7.03 5.67 1.958 2.28 3.53 5.31 4.716 9.09 1.187 3.78 1.78 8.37 1.78 13.77s-.89 10.26-2.67 14.58c-1.72 4.26-4.093 7.53-7.119 9.81-5.873 4.44-12.963 6.66-21.269 6.66a122.9 122.9 0 0 1-9.166-.36h-4.449v-62.91h7.119Zm.267 62.19c1.246.12 2.818.18 4.717.18 1.898 0 3.322-.03 4.271-.09.949-.06 2.255-.3 3.916-.72a22.732 22.732 0 0 0 4.627-1.89c1.424-.78 2.907-1.92 4.45-3.42 1.602-1.56 2.966-3.39 4.093-5.49 2.551-4.92 3.827-11.34 3.827-19.26 0-5.64-.682-10.5-2.047-14.58-1.364-4.14-2.936-7.2-4.716-9.18-1.721-1.98-3.827-3.54-6.319-4.68-2.491-1.2-4.479-1.89-5.962-2.07-1.483-.18-3.204-.27-5.161-.27-1.958 0-3.857.09-5.696.27v61.2ZM151.54 436.5c0 7.44 1.276 12.9 3.827 16.38 2.61 3.48 6.022 5.22 10.234 5.22 5.932 0 11.213-.9 15.84-2.7l.267.63c-4.746 1.86-10.115 2.79-16.107 2.79-5.933 0-10.768-1.8-14.506-5.4-3.737-3.6-5.606-9.15-5.606-16.65 0-7.5 1.958-13.32 5.873-17.46 3.916-4.14 8.899-6.21 14.951-6.21 4.865 0 8.958 1.47 12.28 4.41 3.323 2.94 4.984 7.29 4.984 13.05v.9h-31.77c-.178 1.62-.267 3.3-.267 5.04Zm25.986-5.76c-.06-5.76-1.157-10.02-3.293-12.78s-4.895-4.14-8.276-4.14c-3.382 0-6.408 1.5-9.077 4.5-2.611 3-4.272 7.14-4.984 12.42h25.63ZM135.154 458.46c-2.432 0-4.301-.54-5.606-1.62-1.246-1.08-1.899-2.16-1.958-3.24l-.089-1.53v-28.26c0-4.74-1.246-7.77-3.738-9.09-1.186-.6-2.699-.9-4.538-.9-3.678 0-7.001 1.53-9.967 4.59-2.907 3-4.361 5.7-4.361 8.1v31.95h-6.229v-67.41h6.229v32.67c.95-2.58 2.759-4.98 5.429-7.2 2.669-2.28 5.665-3.42 8.988-3.42 5.755 0 9.581 1.02 11.48 3.06 1.957 1.98 2.936 4.56 2.936 7.74v28.17c0 1.74.327 3.09.979 4.05.712.9 1.394 1.38 2.047 1.44l1.068.18h2.759v.72h-5.429ZM77.782 458.46h-7.387v-62.1H55v-.9h38.266v.9H77.782v62.1Z"/>
  <path fill="#11181C" fill-rule="evenodd" d="M57 41h-2v330.049h88.213v-2h.041V141.055l71.436-38.141v268.135h75.81v-4h-71.81V103.791l137.076 111.814v153.444h.041v2H445V41H57Zm302.766 326.049H441V45H59v322.049h80.254V138.656l1.058-.565 75.436-40.276 1.175-.627 1.031.841 141.077 115.076.735.6v153.344Z" clip-rule="evenodd"/>
</svg>
