<svg xmlns="http://www.w3.org/2000/svg" fill="none" viewBox="0 0 318 318">
  <rect width="318" height="318" fill="#11181C" rx="60"/>
  <path fill="#fff" stroke="#fff" stroke-width="2" d="M83 262.809v1h15.903c10.766.794 21.037 1.191 30.814 1.191 28.074 0 52.095-7.4 72.012-22.241 10.331-7.674 18.399-18.656 24.231-32.887 6.033-14.436 9.04-30.654 9.04-48.638 0-17.941-1.999-33.241-6.023-45.878-4.012-12.596-9.344-22.753-16.027-30.428-6.461-7.848-14.433-14.182-23.903-19.005-9.244-5.007-18.701-8.418-28.367-10.225C151.263 53.901 142.236 53 133.602 53c-8.376 0-16.949.199-25.72.596H83v209.213Zm118.378-151.896.002.004c4.537 13.374 6.819 29.345 6.819 47.934 0 26.112-4.267 47.182-12.73 63.273-3.739 6.863-8.258 12.834-13.556 17.921-5.134 4.92-10.042 8.633-14.723 11.16-4.708 2.543-9.814 4.6-15.32 6.169-5.55 1.383-9.858 2.159-12.952 2.351-3.155.197-7.911.296-14.281.296-5.902 0-10.845-.171-14.836-.51V58.783c5.859-.536 11.9-.804 18.123-.804 6.546 0 12.281.296 17.212.886 4.817.576 11.373 2.804 19.71 6.762l.009.004.009.004c8.244 3.718 15.198 8.798 20.876 15.239l.005.006.006.007c5.841 6.405 11.065 16.383 15.627 30.026Z"/>
</svg>
